/* XPM */
static char *_b5e9b47f0ed4378cbe437ca07f99232LsnHibCYFntn4hC2[] = {
/* columns rows colors chars-per-pixel */
"50 50 205 2 ",
"   c #B4798D",
".  c #A88A96",
"X  c #B88196",
"o  c #BF859B",
"O  c #B2899A",
"+  c #AE949D",
"@  c #B0959E",
"#  c #B197A0",
"$  c #BE9DAA",
"%  c #BB9BA6",
"&  c #B0A6A7",
"*  c #BFA3AF",
"=  c #BDA8AF",
"-  c #B7ACB0",
";  c #BDAEB2",
":  c #B7B6B4",
">  c #BDB7B7",
",  c #BCBCBA",
"<  c #C5869B",
"1  c #C28D9E",
"2  c #C48FA2",
"3  c #C193A4",
"4  c #CB90A4",
"5  c #CC97AA",
"6  c #C39BAD",
"7  c #CA9BAB",
"8  c #D396AA",
"9  c #D19DAD",
"0  c #D89AAF",
"q  c #CB9FB0",
"w  c #D49FB2",
"e  c #DA9DB1",
"r  c #C2A0AD",
"t  c #CBA1AE",
"y  c #D0A2AF",
"u  c #C5A3B1",
"i  c #CCA4B3",
"p  c #C7ADB6",
"a  c #CBABB5",
"s  c #CDADBA",
"d  c #D3A2B3",
"f  c #DAA2B5",
"g  c #D3ABB7",
"h  c #D8A8B6",
"j  c #DDA5B9",
"k  c #D6ADBB",
"l  c #DCACBC",
"z  c #C7B2B7",
"x  c #C4B6BA",
"c  c #CBB3BB",
"v  c #C7BBBB",
"b  c #CABABE",
"n  c #D2B3BC",
"m  c #DEB2BF",
"M  c #E1ABBD",
"N  c #CDBBC2",
"B  c #D4B5C0",
"V  c #DCB4C2",
"C  c #D4BCC4",
"Z  c #DCBAC5",
"A  c #D6BAC8",
"S  c #DCBDC9",
"D  c #E4AEC1",
"F  c #EEAFC4",
"G  c #E4B4C4",
"H  c #E9B3C6",
"J  c #E4BBC7",
"K  c #E4B6C9",
"L  c #EBB6CA",
"P  c #E4BCCB",
"I  c #EABCCC",
"U  c #F0B2C7",
"Y  c #F2BDCF",
"T  c #EDBDD2",
"R  c #F5BED3",
"E  c #C6C2C1",
"W  c #CFC6C7",
"Q  c #CAC9C7",
"!  c #CDC7C9",
"~  c #CECACA",
"^  c #D3C1C5",
"/  c #D8C1C7",
"(  c #D0C8C6",
")  c #D3C6C9",
"_  c #DBC4CB",
"`  c #D2CACB",
"'  c #DCC9CE",
"]  c #D0D0CE",
"[  c #DCCAD1",
"{  c #D5D5D3",
"}  c #DBD4D6",
"|  c #DFD4D8",
" . c #DFDEDC",
".. c #E3C2CD",
"X. c #E9C2CE",
"o. c #E1C9CF",
"O. c #E4C4D1",
"+. c #EBC4D3",
"@. c #E4CCD4",
"#. c #ECCAD5",
"$. c #ECC7D8",
"%. c #EDCDDA",
"&. c #F1C4D3",
"*. c #FAC5D7",
"=. c #F2CAD5",
"-. c #F8C8D6",
";. c #F5C6DA",
":. c #FEC6DB",
">. c #F3CDDA",
",. c #FACBDC",
"<. c #E2D2D6",
"1. c #EAD1D7",
"2. c #E3D3D9",
"3. c #EDD3DB",
"4. c #E4DBDC",
"5. c #EBD9DE",
"6. c #F3D3DD",
"7. c #FBD1DE",
"8. c #F2D9DF",
"9. c #F9D8DF",
"0. c #FFCEE2",
"q. c #EBD3E0",
"w. c #E7DEE1",
"e. c #EDDCE3",
"r. c #F5D5E1",
"t. c #FDD5E3",
"y. c #F4DCE4",
"u. c #FCDBE5",
"i. c #FFD6E9",
"p. c #F5DBE8",
"a. c #FEDCEA",
"s. c #E7E1E1",
"d. c #EBE3E5",
"f. c #EFE5E8",
"g. c #EAE8E9",
"h. c #F3E2E6",
"j. c #FDE2E7",
"k. c #F5E3EB",
"l. c #FEE3EC",
"z. c #F2EAEC",
"x. c #FCEAEE",
"c. c #FFE5F2",
"v. c #F5EEF0",
"b. c #FEECF4",
"n. c #FFEDFB",
"m. c #EBF7F3",
"M. c #F5F5F4",
"N. c #FDF3F6",
"B. c #F4FAF6",
"V. c #FAFAF7",
"C. c #FEF1F9",
"Z. c #FFF5F9",
"A. c #FDF7F9",
"S. c #FFF6FB",
"D. c #FFF4FB",
"F. c #FFF1FD",
"G. c #FFF1FF",
"H. c #FFF3FD",
"J. c #FFF4FD",
"K. c #FFF6FC",
"L. c #FFF4FF",
"P. c #FFF7FF",
"I. c #FFF5FC",
"U. c #F3FEFA",
"Y. c #F7FBFC",
"T. c #F6FFFD",
"R. c #F7FFFF",
"E. c #F4FEFD",
"W. c #F6FDFA",
"Q. c #FAF9FA",
"!. c #FFFBF9",
"~. c #FFF8FB",
"^. c #FDF9FA",
"/. c #FFFDFA",
"(. c #FFFEFB",
"). c #FFF8FD",
"_. c #FDFBFC",
"`. c #FCFAFD",
"'. c #FFFBFC",
"]. c #FFF9FF",
"[. c #FFF8FE",
"{. c #FFFAFF",
"}. c #FFFBFF",
"|. c #FFFBFE",
" X c #F9FFFD",
".X c #FBFFFD",
"XX c #FAFFFC",
"oX c #F9FFFF",
"OX c #F8FFFF",
"+X c #FBFCFE",
"@X c gray99",
"#X c #FDFDFD",
"$X c #FFFCFD",
"%X c #FCFFFD",
"&X c #FFFCFE",
"*X c #FFFDFE",
"=X c #FFFCFF",
"-X c #FFFDFF",
";X c #FCFFFF",
":X c #FEFEFE",
">X c #FFFEFF",
",X c #FEFFFF",
"<X c white",
"1X c #FEFEFE",
"2X c #FEFEFE",
/* pixels */
"<X<X<X<X<X<X<X<X<X<X<X<X<X<X<X<X<X<X<X<X<X<X<X<X^.<X<X<X<X<X<X<X<X<X<X<X<X<X<X<X<X<X<X<X<X<X<X<X<X<X",
"<X<X<X<X<X<X<X<X<X<X<X<X<X<X<X<X<X<X<X<X<X<X<X<X'.<X<X<X<X<X<X<X<X<X<X<X<X<X<X<X<X<X<X<X<X<X<X<X<X<X",
"<X<X<X<X<X<X<X<X<X<X<X<X<X<X<X<X<X<X<X<X<X<X<X<X<X<X<X<X<X<X<XQ.<X<X<X<X<X<X<X<X<X<X<X<X<X<X<X<X<X<X",
"<X<X<X<X<X<X<X<X<X<X<X<X<X<X<X<X<X<X<X<X<X<X<X<X<X<X<X<X<X<X<X<X<X<X<X<X<X<X<X<X<X<X<X<X<X<X<X<X<X<X",
"<X<X<X<X<X<X<X<X<X<X<X<X<X<X<X<X<X<X<X<X<X<X<X<X<X<X<X<X<X<X<X<X<X<X<X<X<X<X<X<X<X<X<X<X<X<X<X<X<X<X",
"<X<X<X<X<X<X<X<X<X<X<X<X<X<X<X<X<X<X<X<X<X<X<X<X<X<X<X<X<X<X<X<X<X<X<X<X<X<X<X<X<X<X<X<X<X<X<X<X<X<X",
"<X<X<X<X<X<X<X<X<X<X<X<X<X<X<X<X<X<X<X'.<X<X<X<X<X<X<X<X<XV.M.Q.<X<X<X<X<X<X<X<X<X<X<X<X<X<X<X<X<X<X",
"<X<X<X<X<X<X<X<X<X<X<X<X<X<X<X<X<X<X<X'.'.<X<X<X<X<X<X<X^.M.M.M.<X<X<X<X<X<X<X<X<X<X<X<X<X<X<X<X<X<X",
"<X<X<X<X<X<X<X<X<X<X<X<X<X<X<X<X<XA.<Xz.<X<X<XQ.<X<XM.<X'.'.v.<X<X<X<X<X<X<X<X<X<X<X<X<X<X<X<X<X<X<X",
"<X<X<X<X<X<X<X<X<X<X<X<X<X<X<X<X'.'.C.` d.g.'.<X<X<XQ.<XA.z.f.<X<X<X<X<X<X<X<X<X<X<X<X<X<X<X<X<X<X<X",
"<X<X<X<X<X<X<X<X<X<X<X<X<X<X<X<Xv.'.'.| <XA.<X<X<X<X'.^.A.<.2.'.<X<X<X<X<X<X<X<X<X<X<X<X<X<X<X<X<X<X",
"<X<X<X<X<X<X<X<X<X<X<X<X<X<X<X<XK.'.k.b '.N.<X<X^.A.'.A.'.@.2.'.<X<X<X<X<X<X<X<X<X<X<X<X<X<X<X<X<X<X",
"<X<X<X<X<X<X<X<X<X<X<X<X<X<X<X<X'.K.[ ; A.C.<XA.v.z.A.A.'.5.p.'.<X<X<X<X<X<X<X<X<X<X<X<X<X<X<X<X<X<X",
"<X<X<X<X<X<X<X<X<X<X<X<X<X<X<XA.A.l.c z b.A.'.^.f.d.C.'.C.y.l.K.<X<X<X<X<X<X<X<X<X<X<X<X<X<X<X<X<X<X",
"<X<X<X<X<X<X<X<X<X<X<X<X<X<XQ.N.b.r.+ ; _ 5.'.'.z.f.C.'.@.@.r.p.'.<X<X<X<X<X<X<X<X<X<X<X<X<X<X<X<X<X",
"<X<X<X<X<X<X<X<X<X<X'.<X<X<XM.v.l.u.a 3.1.3.b.A.C.v.K.'.c n o.o.'.<X<X<X<X<X<X<X<X<X<X<X<X<X<X<X<X<X",
"<X<X<X<X<X<X<X<X<XC.'.N.^.^.<X~ @.F.P S t.s l.K.[ <.b.C.b.S %.p.'.<XB.;XU.Y.<Xz.b.<X<X;X;X<X^.<X<X<X",
"<X<X<X;X<X<X<X<X'.'.A.f.N.M.<X~ [ c.S r.a.+.b.K.@.2.K.K.x.@.$.l.A.s.;XT.T.Y.'.b.e.v.Y.U.T.;X(.(.<X<X",
"<X<X<X;X<X<X<X<X'.'.K.| ^.M.<X} x.K.>.F.a.r.b.F.C [ b.n.3.6.%.c.x.( <X;X;X;XK.c.e.C.<XT.T.;X^.(.<X<X",
"<X<X<X<X<X<X<X<XA.'.C.) '.^.<Xd.' #.P t.+.>.n.n.@.k.C.C.A A V Z 8.v M.;X<X'.K.q.k.K.<X;X;X;X!.^.<X<X",
"<X<X<X<X<X<X<X<XC.'.h.N '.<X<Xz.N B +.O.P $.n.b.c 2.y.F.O.+.a.7.X._ s.M.<X'.K.A p.F.<XW.T.;X(.(.<X<X",
"<X<X<X<X<X<X<X<X'.'.@.^ A.'.<XC.e...l.u.i.6.c.b.S %.c.K.%.$.a.7.+.y.4.^.<X'.F.s p.K.<X;XT.;X(.(.<X<X",
"<X<X<X<X<X<X<X<X'.b.c C h.'.<X'.p.s O.t.u.>.$.n.c $ l.u.+.t.t.u.=.l.e.<X'.'.#.i %.n.<X;X;X;X(.(.<X<X",
"<X<X<X<X<X<X<X<XK.e.# p @.C.A.K.K.B s 6.+.V % u.S . b.+.k I w G &.6.y.'.C.K.6 6 V p.A.Y.;X;X(.(.<X<X",
"<X<X<X;X<X<X<X'.'.C c %.@.h.'.K.n.O.r.c.n.+.>.r.O.$ O.F.k ,.,.I K u./ 5.'.b.6 V P p.'.<XU.XX(.!.<X<X",
"<X;X<X;X<X<X<X'.b.K.3.B l.K.A.b.K.$.+.>.c.+.,.a.%.u Z c.V ,.:.*.=.l.' ' b.K.a.&.i.c.'.<X;X;X(.!.<X<X",
"<X;X;X;X;X<X<X'.y.y.%.O.l.b.C.C.F.>.>.+.c.V i 3 J r r +.P t.:.a.t.9.5.k.k.@.t.T i.r.z.Q.;X;X(.(.<X<X",
"<X;X;X;X;X<X<X'._ @ A ..6.c p.c.n.&.K d t.j d i X.S s Z P ,.H ,.u.6.5.N.c.* G L ;.O.<.M.;X;X(.(.<X<X",
"<X<X;X;X;X<X<X'.5.A i.V c.$.K.l.n.t.G 5 ,.j j +.P %.O.X.+.,.D &.l.j.@.<.C._ P T ;.O.e.<X<X<X(.(.<X<X",
";X;X;X;X<X<X<X'.p.$ Z u +.+.C.a a.0.j 5 R w 5 ;.P X.>.>.&.I j I u.l.2.2.K.O.6 I I P h.<X<XXX(.(.<X<X",
";X;X;X;X<X<X<X'.C.% i $.X.r.l.r I I X o D j w n.t.V %.a.O.q 5 l 6.y.h.f.k.O.O K T $.k.<X;XV.(.(.<X<X",
";X;X;X;X;X<X<X'.C.l.V a.i.K.O.A l I 2 D 0.I 3 a.O.O V c.>.i V u.#.y.k.^ ' K.P +.a.c.'.<X;XXX(.<X<X<X",
";X;XT.T.;X;X<X^.A.y._ +.b.K.l.3.7.&.l g >.>.g >.X.P i l.X.#.s p.l.l.x...#.c.X.>.u.b.'.Q.B.;X<X<X<X<X",
";X;XT.T.;X;X<X(.'.5.n Z l.K.l.X.K G &.>.u.>.B r.P k t >.J X.o.C.5.l.b.+.7.b.I m #.x.'.<XXX;XXXB.<X<X",
"<X;XXXT.;X;X<X^.'.3.n ..l.c.6...V d G t.c.i.$.t.>.I &.,.P X.r.u.y.8.u.+.t.t.m Z 3.x.<X<X<X;X;XXX<X<X",
"<X<XXX;X;X<X<X^.N.@...t.u.$.....R d K a.a.>.P V G G I H 7 +.c.u.p._ ..I -.h y 7.p.b.<X<X(.;X;X;X<X<X",
"<X(.XX;X<X<X<X^.'...J l.u.P Z =.D w I l.t.I I P L D M H 2 I u.l.>.Z X.I &.1 7 i.u.x.^.(.Q.XXXXXX<X<X",
"<X<X<X<X<X<X(.A.'...V l.c.>.=.7.&.j d &.>.>.u.,.L e 0 :.j j M ,.X.#.i.,.7.9 h =.r.l.N.<X<X<XXXB.<X<X",
"<X<X<X<X<X<X^.N.C.S J i.u.t.7.&.c.Y 7 l &.,.t.G 1   < F U f f ;.>.6.i.-.a.l G &.r.p.x.^.<X<X<X(.<X<X",
"<X<X<X<X<X<X^.C.@.n X.i.,.>.=.k G j 7 P t.t.t.G f 8 e 8 F f L ,.u.X.J G u.d G >.r.5.5.z.V.<X<X<X<X<X",
"^.<X<X(.<X<XA.h.c n Z t.l.X.n J 7 3 l >.>.r.t.K d 5 j 4 H l ,.>.6.s ..k ,.7 I >.8.@.) 4.(.<X(.<X<X<X",
"^.<X<X<X<X<Xd.) z C X.>.6...c n V t V >.6.r.u.P I l H 9 H l 7.r.y.n J g &.t P #.p.5.W E  .M.(.(.<X<X",
"<X<X<X<X<XM.` & b 1.8.3.1.@._ C $.A O.p.p.k.p.O.J V I k P V 6.y.l.@.@.S #.S #.8.5.s.~ : ] Q.<X<X<X<X",
"<X<X(.<X<XB.{ > ; _ o.C / ' ^ b o._ @.y.5.<.' c Z B ..n S Z y.x.4.[ ^ C _ _ o.' ` } Q , { M.(.M.<X<X",
"(.(.(.<X;X;XV.z.z.N.b.b.^.^.M.C.'.A.K.A.w.! x - @.' _ c N ) f.M.<X(.M.C.C.'.A.N.N.(.B.M.<X<X<X<X<X<X",
"<X<X(.XXXX;X<X<X<X<X^.<X<X<X(.<XC.C.'.<X<X<X<X<X<X'.'.'.'.^.<X;XXX<X(.<X'.'.'.<X<X(.B.XX<XQ.M.(.<X<X",
"<X<X(.XXW.B.B.XX^.<X^.^.<XXXB.<X<X'.<X<X;XB.B.<XM.'.<X<X<X;XB.m.W.B.(.^.<XA.^.^.<X<XXX;X<X<X^.<X<X<X",
"^.^.(.<X;X;XXXXXM.<X<X^.(.XX;X<X<X'.M.XX<X;XY.;X<X<X'.<X;X;X;XT.;XXX<X<X<XN.<X<XV.<X;XXX<X(.V.<X<X<X",
"<X<X<X<X<X<X<X<X<X<X<X<X<X<X<X<X<X<X<X<X<X<X<X<X<X<X<X<X<X<X<X<X<X<X<X<X<X<X<X<X<X<X<X<X<X<X<X<X<X<X",
"<X<X<X<X<X<X<X<X<X<X<X<X<X<X<X<X<X<X<X<X<X<X<X<X<X<X<X<X<X<X<X<X<X<X<X<X<X<X<X<X<X<X<X<X<X<X<X<X<X<X"
};
