/* XPM */
static char *_79bd97bb758483194d04b0f1a498694dKDkqRXazUTROrNv[] = {
/* columns rows colors chars-per-pixel */
"50 50 172 2 ",
"   c #DC7894",
".  c #DD7D9A",
"X  c #EE7797",
"o  c #E27A96",
"O  c #ED7997",
"+  c #E97798",
"@  c #E47D9B",
"#  c #EC7C9C",
"$  c #F6769A",
"%  c #FA769D",
"&  c #F37C9D",
"*  c #FB7C9E",
"=  c #E47EA2",
"-  c #ED7EA3",
";  c #F47EA1",
":  c #FD7EA2",
">  c #DD8095",
",  c #D5849B",
"<  c #DB839D",
"1  c #DB899E",
"2  c #E4829D",
"3  c #EB829D",
"4  c #E4889F",
"5  c #F3829E",
"6  c #DE86A2",
"7  c #DC8BA3",
"8  c #DB8FA9",
"9  c #DC94AA",
"0  c #E484A3",
"q  c #EC83A2",
"w  c #E48BA4",
"e  c #EC89A4",
"r  c #ED84A9",
"t  c #E48DAA",
"y  c #EB8CAA",
"u  c #F383A3",
"i  c #FA82A4",
"p  c #F289A5",
"a  c #F385A9",
"s  c #FC84A8",
"d  c #F58BAA",
"f  c #FD88AA",
"g  c #E391A7",
"h  c #E495AD",
"j  c #EB92AC",
"k  c #E39AAF",
"l  c #F292AC",
"z  c #FB92AE",
"x  c #F299AF",
"c  c #E794B0",
"v  c #EC94B1",
"b  c #E69BB3",
"n  c #EC9BB4",
"m  c #EE9AB9",
"M  c #F495B4",
"N  c #FB94B1",
"B  c #F39CB5",
"V  c #FB9BB6",
"C  c #F49CB9",
"Z  c #FC9EBA",
"A  c #EDA2B6",
"S  c #ECA5BC",
"D  c #EBA9BB",
"F  c #F2A1B7",
"G  c #F3A3BB",
"H  c #FCA3BE",
"J  c #F4AABE",
"K  c #FAABBF",
"L  c #F5A6C1",
"P  c #FEA5C1",
"I  c #F4ACC3",
"U  c #FDACC4",
"Y  c #F4AEC8",
"T  c #FBAEC9",
"R  c #EEB1C6",
"E  c #EBBDCD",
"W  c #F5B2C5",
"Q  c #FAB4C7",
"!  c #F5B8C7",
"~  c #F4B5CA",
"^  c #FDB4CB",
"/  c #F3BCCE",
"(  c #FDBACE",
")  c #EEBED1",
"_  c #FFB6D1",
"`  c #F4BED2",
"'  c #FCBDD4",
"]  c #FFBED9",
"[  c #E2C3CD",
"{  c #ECC1CE",
"}  c #F4C2CF",
"|  c #FAC0CF",
" . c #E5C5D0",
".. c #EEC4D4",
"X. c #E6C8D2",
"o. c #EDCCD7",
"O. c #EBC9D5",
"+. c #F0C0D0",
"@. c #F1C2D2",
"#. c #F2C2D2",
"$. c #F3C3D3",
"%. c #F7C0D3",
"&. c #F6C1D3",
"*. c #F5C2D3",
"=. c #F6C3D2",
"-. c #F3C5D2",
";. c #F2C1D4",
":. c #F1C2D4",
">. c #F3C2D5",
",. c #F2C3D5",
"<. c #F0C3D7",
"1. c #F3C2D7",
"2. c #F2C3D7",
"3. c #F4C1D4",
"4. c #F7C0D5",
"5. c #F6C1D5",
"6. c #F5C2D5",
"7. c #F7C2D4",
"8. c #F5C1D7",
"9. c #F6C0D7",
"0. c #F7C0D7",
"q. c #F4C3D6",
"w. c #F0C4D5",
"e. c #F0C7D5",
"r. c #F0C5D6",
"t. c #F3C4D6",
"y. c #F1C6D7",
"u. c #F4C5D5",
"i. c #F7C4D7",
"p. c #F3C2D5",
"a. c #F9C0D3",
"s. c #FAC1D2",
"d. c #FDC0D2",
"f. c #FAC1D4",
"g. c #F8C3D5",
"h. c #FBC0D6",
"j. c #F8C3D7",
"k. c #FFC1D4",
"l. c #FDC2D4",
"z. c #FFC2D5",
"x. c #FFC0D7",
"c. c #FCC3D6",
"v. c #FFC3D6",
"b. c #F8C5D4",
"n. c #FCC2D4",
"m. c #F8CAD5",
"M. c #F3C2D8",
"N. c #F5C1D8",
"B. c #F3C7D8",
"V. c #F5C6D8",
"C. c #F4C4D8",
"Z. c #FFC2D9",
"A. c #FFC0DB",
"S. c #FFC2DA",
"D. c #FFC3DB",
"F. c #F8C5D8",
"G. c #FAC7D8",
"H. c #FEC4DA",
"J. c #FFC4DB",
"K. c #FFC4DC",
"L. c #FFC6DC",
"P. c #FDC4DA",
"I. c #F1C8D8",
"U. c #F7C8D8",
"Y. c #F7C8DA",
"T. c #F0CCD8",
"R. c #F4C8D9",
"E. c #F8C8D8",
"W. c #FCC9DC",
"Q. c #FFC8DE",
"!. c #FCC9DC",
"~. c #FFCCE1",
/* pixels */
"....>.5.5.' 5.5.5.>.>...>.>.5.5.' ' ' / 5.Y.) 5.` ` ' / W.5.5.5.N.M.N.N.N.N.5.5.5.N.M.M.>.M...w.>.>.",
"....>.5.5.' 5.5.5.>.....>.>.5.5.` ` h.` F.W.` H.H.Z.K.` K.` ) ) >.M.N.N.N.N.5.5.5.5.M.M.M.>.w.w.>.>.",
"..w.>.5.5.' 5.5.>.>.....>.>.5.5.....i.;.5.s.R ^ T Q ^ Y x.;...I.>.>.>.>.>.>.5.>.>.M.M.M.M.M.>.>.>.>.",
"..w.>.5.5.5.5.5.>.........>.5.>...X.w.;.` W h h t t c b ` ;.T.o...>.>.>.>.>.>.>.>.M.M.M.M.M.>.>.>.>.",
"w.>.>.5.5.5.5.>.........w.>.5.>.o.X...;.' I 6 . q = 0 g ( ;.X.[ ..>.>.>.>.>.>.>.>.>.M.M.M.5.5.5.>.>.",
"w.>.>.5.5.5.5.>.........>.>.5.>.o. ...5.x.T 0 - a - q t ' h...[ w.>.>.>.>.>.>.>.>.>.M.>.5.5.5.5.5.>.",
">.>.>.5.5.5.>.>.........>.5.' 5...{ =.' ( P r a i ; u y ^ ( b.-.;.=.=.;.>.>.w.w.>.>.>.5.5.5.N.5.5.>.",
">.>.5.5.5.5.>.w.........5.5.' ' s./ k.^ U M - s ; ; u q P U ( k.s.=.=.=.>.>.>.w.>.>.>.5.5.5.' N.5.>.",
">.>.5.5.5.5.>.w.....w.V.5.` ' ' Z.^ F j w 0 3 ; & i ; # q 0 j F ^ x.x./ / F.Y.E w.>.M.N.5.N.' ' 5.>.",
">.5.5.5.5.5.>.w...w...` ' Z.] _ Z j 0 0 0 q r p & u ; & ; - q y h D ( x.h.` ;.i.w.w.M.M.5.N.' ' 5.>.",
"5.5.5.5.5.5.>.w...B.>./ ' ] _ C q # @ 2 q q q q # u & & i ; X 3 < 7 A ' x./ / m.>.w.>.>.5.5.' N.5.>.",
"5.5.5.5.5.>.>.>...w.i.h.' ^ C 0 # & u p e q 2 3 q u ; ; i i & u e < 7 F ( ' =.=.>.w.>.>.N.5.5.N.5.>.",
"5.5.5.5.5.>.>.>.>.;.h.Z.^ m 0 @ # 5 u q 3 2 3 p 3 u & & u & & u p 2 < t J ' x./ ;.-.w.>.>.5.N.N.5.>.",
"5.5.5.5.5.>.>.>.V.5.' ' L t = a p 3 3 3 2 @ 3 u 5 u & # u u # 3 # u q 0 n ^ x.s.;.-.w.w.>.>.N.N.>.>.",
"5.5.5.5.5.>.>.>.5.5.' ~ m 0 q d p 3 3 e l d q # 5 u & u z z 0 2 + u p 2 t J ' b.;.-.w.w.>.>.M.>.>.>.",
"5.5.5.5.5.>.>.w.) F.Z.Y c 0 q q q 2 0 F ^ P z O : & & d P P j 2 p u # . w F ( x.=.;.w.w.>.>.M.>.>.>.",
"=.=.=.5.>.>.....E W.h.S t 0 q u a 0 b / v.W e ; % & q w ^ x.Y 7 q u p q w b ~ H.` =.>...M.M.M.>.>.>.",
"=.=.=.>.>.w..... .V.' D t 0 q ; - 0 S s.-.D 2 & : : q 7 ~ x.` n . @ @ . < h I h.` ;.>.>.M.M.>.>.>.>.",
";.;.>.>.>.>.>.>.i.` ' L w 3 u & ; q L ' k.J q & i & 2 1 W k.' I B B n n b D ~ =.=.;.>.>.M.M.N.N.>.>.",
";.;.>.>.>.>.>.>.F.` ' U 0 # i & s # j H ^ K p & & # 0 7 Q x.x.^ ( ' ' ( ( / =.i.;...>.>.N.N.N.N.5.>.",
"-.-.-.;.>.>.>.>.5./ Z.^ e @ i ; i + # p N N 5 X & 3 0 g ^ ( x.' ( ( k.l.s.-.-.........;.5.5.' 5.5.>.",
"..-.-.;.>.>.>.5.` / x.' v 2 ; ; ; # u & & 5 O 5 5 3 4 1 G G U ( ( ( | } } } ..........;.5.5.' ' 5.>.",
"-.-.;.;.>.>.>.>.` ` ' ' P y 3 q q q f & $ * & 5 5 2 2 > j 0 l B I ! ( k.b.-.w.w.......;.>.5.' 5.5.>.",
";.;.;.;.5.>.>.>.w.5.h.x.( n 4 0 0 @ 5 & * s & # 3 2 e 2 p o # q 7 k I ( x.s.;.........;.>.5.5.5.5.>.",
";.=.=.=.5.5.>.>.B.Y.i.=.k.( A , 7 e @ & i & & 5 3 3 p u # & i p 0 < 7 h Y x.v.;.;.;.....M.M.N.N.>.>.",
"=.=.=.=.5.5.>.>.E  .{ { -.b.! D 7 w 2 3 p 5 # 5 u 3 3 5 3 & ; # u 3 2 w n Y ` ' =.;.>.....M.M.M.>.>.",
"=.=.=.=.5.5.5.>.I.O.....w.b.b.k.^ G g < 2 2 # i 5 5 3 3 q u u ; i ; # 2 w n T x.' =.>.......M.M.>.>.",
";.=.=.=.5.5.5.>.B...{ { { E / ( k.^ Q I K x # O $ 5 5 q q q 3 u : ; ; q 0 t L x.' =.>.......<.M.>.>.",
">.>.5.5.5.5.N.N.>.) E ;.b.k.k.' ' ( v.v.k.K 3 : * : ; q j j 0 0 ; ; u p 0 w S ' ' =.>.....>...M.>.>.",
"..w.>.=.5.' ' N.h.h.=.s.' ( ( ^ ' ^ x./ / J q f : : + w ^ ( S M - & u p 0 6 n ' ' ` >.>.>.>.>.>.>.>.",
"....-.=.5.' ' ' ` ' ~ D k h h j M n h.m.m.W   $ : : @ w ' ~.` ^ a ; ; p 0 < b ' ' =.5.>.>.>.>.>.>.>.",
"....-.;.5.5.' ' ' H.( b , < 2 0 0 6 ~ =.s.I @ s % s q w Q s.~ ' N i ; r 2 < b ' ' =.>.>.>.>.5.5.>.>.",
"....>.>.>.>.5.5.` ' ' L 7 0 a r . t n ' W.C o u X s q w Q x.` x.z * & p 0 < k k.' =.5.>.5.5.5.5.5.>.",
"..w.>.>.>.>.>.>.) h.Z.~ c 0 q q 0 0 w H ] P 3 q q p @ w _ K.( Y u $ & u 2 < A k.s.=.>.>.5.5.5.5.5.>.",
"w.w.>.>.>.>.>.>.;.5.K.' m 0 - - r q @ y P Z e 3 q q @ e T _ G v X & u 3 2 g J k.=.=.>.>.5.5.5.5.5.>.",
"w.w.>.>.>.>.>.w.V.;.h.' G t r a - u - q d e 2 q 2 u q p N M r q # u p @ < n Q k.=.;.>.>.>.5.5.5.>.>.",
">.>.>.>.>.>.>.w.Y.) ` ] T m y = ; s i ; 3 2 2 3 3 5 u ; ; # # ; q p q . t J ' ( =.;.>.>.>.>.M.M.>.>.",
">.>.>.>.>.>.>.w.V.) 5.K.' T v @ u : ; ; 3 q 3 3 u 5 & & ; ; ; u q 2 2 w n ^ k.=.=.;.w.w.>.>.>.M.>.>.",
">.>.>.>.5.>.>.w.w...w.F.Z.' I y a & # u u u u 3 i & & : i i i u 0 < w F Q ' ' s.;.;.w...w.w.>.>.>.>.",
">.>.>.>.5.>.>.w.w.....>.` Z.' L e 2 q e 2 # 5 5 $ $ i s ; X q q w 7 h ^ x.' / s.;.-.....w.w.>.>.>.>.",
">.>.>.5.5.5.>.w.......w.5.' ' ' ^ B w . 2 u O i : * : X d 0 2 < h J ' Z.x.' ` i.;...........w.>.>.>.",
">.>.>.5.5.5.>.>.........>.5.' ' H.Q J n l d X i $ * s + r 6 b L W ^ ' ' ' ` =.i.;...........w.w.>.>.",
"w.>.>.5.5.5.5.>.w.......>.5.5.5.=.=.x.( U V # & : : u q H Y k.L.H.Z.' ` ` 5.5.>.>.......w.w.w.w.>.>.",
"w.>.>.5.5.5.5.>.>.......w.>.5.5.E E b.x.' P q q u # # e ^ x.b.` 5.` ` ` 5.i.>.) >.>.>...w.w.w.>.>.>.",
"..w.>.5.5.5.5.5.>.w.....w.>.5.>.Y...5./ ( U t e q q y j ^ ` 5.) ) ) ;.5.5.>.>.>.>.>.>.>.>.>.>.>.>.>.",
"..w.>.5.5.' ' 5.>.w.....w.>.>.>.V.>.N.` ' I 7 , w < 0 t _ Z.K.B.>.w.w.>.) ) >.V.>.>.>.>.>.>.>.>.>.>.",
"..w.>.5.' ' ' 5.5.>.w...w.>.>.5.` ` P.F.v.~ 9 8 h 7 7 8 _ ] P.) V.B.B.>...>.>.i.5.5.5.>.>.>.>.>.>.>.",
"w.w.>.5.5.' 5.5.5.>.w.w.>.>.>.5.N.` 5.` 5.` R ( ~ ^ ' ^ Z.` ' N.>.>.>.B.B.B.;.) >.5.5.5.>.>.>.>.>.>.",
">.>.>.>.5.5.5.5.>.>.>.>.>.>.>.>.5.5.5.5.5.5.5.=.5.5.5.5.5.5.5.5.>.>.>.>.>.>.>.>.>.>.>.>.>.>.>.>.>.>.",
">.>.>.>.>.>.>.>.>.>.>.>.>.>.>.>.>.>.>.>.>.>.>.>.>.>.>.>.>.>.>.>.>.>.>.>.>.>.>.>.>.>.>.>.>.>.>.>.>.>."
};
