/* XPM */
static char *_5a17f42cbdd4060bb7fe405bb782943IUE6U9klkElBTvcX[] = {
/* columns rows colors chars-per-pixel */
"55 50 242 2 ",
"   c #4F3C38",
".  c #6F4A3E",
"X  c #4E3F40",
"o  c #594744",
"O  c #6D4A46",
"+  c #6E544C",
"@  c #75574A",
"#  c #695855",
"$  c #775B56",
"%  c #714D45",
"&  c #7C6559",
"*  c #776348",
"=  c #765F6A",
"-  c #786965",
";  c #7B716A",
":  c #7B7879",
">  c #865C47",
",  c #885F59",
"<  c #84614C",
"1  c #99684C",
"2  c #836553",
"3  c #8A6B55",
"4  c #826B5C",
"5  c #8B6C5B",
"6  c #856658",
"7  c #936C58",
"8  c #8D715E",
"9  c #95735D",
"0  c #9A765B",
"q  c #AA785C",
"w  c #B1735B",
"e  c #845E62",
"r  c #836C64",
"t  c #8B6D62",
"y  c #896768",
"u  c #956D63",
"i  c #857265",
"p  c #8C7364",
"a  c #85746A",
"s  c #8C7469",
"d  c #8C7A6D",
"f  c #947564",
"g  c #9A7561",
"h  c #957A63",
"j  c #9C7B64",
"k  c #92766A",
"l  c #937B6C",
"z  c #9A7B6B",
"x  c #9D746C",
"c  c #8C7C72",
"v  c #867A75",
"b  c #927C72",
"n  c #937C79",
"m  c #9D7C77",
"M  c #836A73",
"N  c #A57D64",
"B  c #A77B68",
"V  c #B17863",
"C  c #A37B7A",
"Z  c #9C826D",
"A  c #988167",
"S  c #8D827C",
"D  c #8E8177",
"F  c #958174",
"G  c #9D8372",
"H  c #9B857C",
"J  c #96867D",
"K  c #A4836D",
"L  c #AA846C",
"P  c #A88668",
"I  c #B4856D",
"U  c #BC846C",
"Y  c #B88968",
"T  c #BD916B",
"R  c #A38473",
"E  c #AB8573",
"W  c #A48B75",
"Q  c #AC8A73",
"!  c #A38A7B",
"~  c #AC8C7B",
"^  c #A8847A",
"/  c #B48C75",
"(  c #B88B77",
")  c #AA937B",
"_  c #AA957C",
"`  c #BC9274",
"'  c #B3927B",
"]  c #BB937C",
"[  c #BD997D",
"{  c #B89776",
"}  c #C3856C",
"|  c #C48C6A",
" . c #C9886D",
".. c #C8956D",
"X. c #C38D73",
"o. c #CB8C73",
"O. c #C48C79",
"+. c #D08B75",
"@. c #C49373",
"#. c #CC9374",
"$. c #C39A73",
"%. c #C4947B",
"&. c #CB957A",
"*. c #CC9A7C",
"=. c #C99C78",
"-. c #D39B75",
";. c #D3957B",
":. c #D59C7C",
">. c #DA9C7C",
",. c #D59676",
"<. c #CCA27C",
"1. c #D3A37C",
"2. c #D7A47A",
"3. c #917F82",
"4. c #A17E80",
"5. c #948A84",
"6. c #9B8B83",
"7. c #9B8786",
"8. c #938D8A",
"9. c #AA8C87",
"0. c #AC9688",
"q. c #B59A84",
"w. c #BE9C83",
"e. c #B49B8A",
"r. c #BC9B8B",
"t. c #B69586",
"y. c #A78B95",
"u. c #A79897",
"i. c #B49C93",
"p. c #B79A95",
"a. c #BEA384",
"s. c #BDA38B",
"d. c #B4A187",
"f. c #BCA294",
"g. c #B9A698",
"h. c #B4A99F",
"j. c #B79CA1",
"k. c #AD9CA8",
"l. c #AEA3A7",
"z. c #B8A7A6",
"x. c #B9B2B5",
"c. c #BBADB1",
"v. c #CB9B84",
"b. c #C59A88",
"n. c #D39D82",
"m. c #D69E86",
"M. c #C09B92",
"N. c #CCA284",
"B. c #C5A58B",
"V. c #CBA48B",
"C. c #C4AC8D",
"Z. c #CBAA8C",
"A. c #C2A486",
"S. c #D4A484",
"D. c #DBA382",
"F. c #D5AB83",
"G. c #DCAC85",
"H. c #D2A28A",
"J. c #D4AA8C",
"K. c #DCAC8B",
"L. c #DCA48B",
"P. c #DCB38D",
"I. c #D8B089",
"U. c #C4AB93",
"Y. c #C8AA98",
"T. c #D3AD92",
"R. c #D7AA97",
"E. c #CEB293",
"W. c #CAB49B",
"Q. c #D3B395",
"!. c #DCB393",
"~. c #D3B59B",
"^. c #DBB59A",
"/. c #D4BA9D",
"(. c #DCBC9D",
"). c #C9B08F",
"_. c #E2AD85",
"`. c #E2AA8B",
"'. c #E2B28C",
"]. c #E1B084",
"[. c #E7AD92",
"{. c #E1B493",
"}. c #E3BB95",
"|. c #E4BC9B",
" X c #E8B798",
".X c #F3B69B",
"XX c #F1AF97",
"oX c #C29CAB",
"OX c #C8A8A7",
"+X c #CCB3A4",
"@X c #CBB7A9",
"#X c #D5BBA2",
"$X c #D9BBA3",
"%X c #D7B8A9",
"&X c #CBA9B2",
"*X c #D4ABB7",
"=X c #C9B4B5",
"-X c #D8B8BA",
";X c #E2BDA3",
":X c #E2BDAA",
">X c #E6B4A7",
",X c #E9C29E",
"<X c #D9C1A8",
"1X c #D5C3B3",
"2X c #D8C5BA",
"3X c #CFC2BD",
"4X c #E8C4A8",
"5X c #F2CAAF",
"6X c #EACCB2",
"7X c #E7C5B4",
"8X c #F2CBB6",
"9X c #ECD1B8",
"0X c #BBB5C3",
"qX c #CCBBC5",
"wX c #D6B9C7",
"eX c #DDB7CB",
"rX c #ECBECD",
"tX c #E2B9C6",
"yX c #EEBED1",
"uX c #E4BFD1",
"iX c #F0BFD2",
"pX c #D9C6C3",
"aX c #DBC2D3",
"sX c #E6C9C7",
"dX c #EBD4CC",
"fX c #E8D1C5",
"gX c #F4D4C7",
"hX c #ECC3D6",
"jX c #E5C4D4",
"kX c #F2C1D4",
"lX c #F6C4DA",
"zX c #F9C6DC",
"xX c #FAC9DF",
"cX c #EBD7D4",
"vX c #F2DAD3",
"bX c #F5DDD7",
"nX c #F0CEC0",
"mX c #FCE5D9",
"MX c #FECCE2",
"NX c #FEECE4",
"BX c #FCE9EC",
"VX c #FFF2E9",
/* pixels */
"kXkXkXkXkXkXkXkXkXkXkXkXkXkXkXkXkXkXkXkXkXkXkXkXkXkXkXkXkXkXkXkXkXkXkXkXkXkXkXkXkXkXkXkXkXkXkXkXkXkXkXkXkXkXkX",
"kXkXkXkXkXkXkXkXkXkXkXkXkXkXkXkXkXkXkXkXkXkXkXkXkXiXyXyXyXyXyXyXyXyXyXiXkXkXkXkXkXkXkXkXkXkXkXkXkXkXkXkXkXkXkX",
"kXkXkXkXkXkXkXkXkXkXkXkXkXkXkXkXkXkXlXlXlXlXzXzXzXzXMXMXMXMXMXMXMXMXMXxXlXkXkXkXkXkXkXkXkXkXkXkXkXkXkXkXkXkXkX",
"kXkXkXkXkXkXkXkXkXkXkXkXkXkXkXlXlXrXtX-X-X*X*XOXOXj.9.m m 4.m C m G 9.9.&XkXkXkXkXkXkXkXkXkXkXkXkXkXkXkXkXkXkX",
"kXkXkXkXkXkXkXkXkXkXkXkXkXlXrXOX9.^ ~ 0.e.! F F i # + & i 4 & 6 * * @ o # y.tXkXlXkXkXkXkXkXkXkXkXkXkXkXkXkXkX",
"kXkXkXkXkXkXkXkXkXkXkXkXkX&Xn i f K r.e.l l l d H g.g.g.e.e.e.0.W W ! b a - o = *XlXkXkXkXkXkXkXkXkXkXkXkXkXkX",
"kXkXkXkXkXkXkXkXkXkXkXyXy.- r l ! ~ ~ k + $ 4 s i.+Xg.g.W.#XW.s.q.~ W G H c # o M eXzXkXkXkXkXkXkXkXkXkXkXkXkX",
"kXkXkXkXkXkXkXkXkXkXlXj.# v b s R Q 5 $ $ + $ r s 4 4 G _ W A ) q.R R ! G l l & o M *XkXkXkXkXkXkXkXkXkXkXkXkX",
"kXkXkXkXkXkXkXkXkXkXOX; # D d p W ' R s 4 r 4 @ & 4 4 h W K K q.B.q.q.' A h z G & o # oXkXkXkXkXkXkXkXkXkXkXkX",
"kXkXkXkXkXkXkXkXkX-X5.- a c s p G ~ ~ z t t t 6 6 p G q.U.#X6X9XgX7X$X[ j 0 0 j G & o # wXkXkXkXkXkXkXkXkXkXkX",
"kXkXkXkXkXkXkXkXtX8.5.5.; d s l G z ~ 0.f 5 p 8 6 2 3 8 z ~ s.W.4X~.V.B.<.{ P P h l r X = zXkXkXkXkXkXkXkXkXkX",
"kXkXkXkXkXkXkXyXu.8.u.S c i i s l G e.U.h 3 8 9 9 j z Q r.+X7X7X:XZ.{ T $.=.$.{ A f i # # yXkXkXkXkXkXkXkXkXkX",
"kXkXkXkXkXkXkX-Xu.l.5.S d - i.9.i l f.U.) Z W j g j g g E r.~.:X4X^.Z.=.$.T Y T Q h i n 3.tXkXkXkXkXkXkXkXkXkX",
"kXkXkXkXkXkXkXwXx.l.5.6.- b mXNX@XH 9.0.) ) q.Q Q L j N N N L ] [ [ $.$.@.T Y q L j s J u.tXkXkXkXkXkXkXkXkXkX",
"kXkXkXkXkXkXkXwXx.z.u.6.a 2XVXvXNX+XH 0.0.i.W.r.] w.b.J.J.` P I $.` T Y Y Y Y I B 9 p b u.tXkXkXkXkXkXkXkXkXkX",
"kXkXkXkXkXkXkXqXx.l.u.6.n h.sXvXvXbXcXpXsXdXNX7XV.Z.N.<.<.$.T $.1.F.F.1.2.-.#.X.B 9 5 i u.tXkXkXkXkXkXkXkXkXkX",
"kXkXkXkXkXkXuXqXl.z.=X9.r r p.vXdX1XpXBXcXdXVXnXV.J.N.$.1.I.P.P.P.I.F.S.2.:.:.&./ g & & 6.wXkXkXkXkXkXkXkXkXkX",
"kXkXkXkXkXkXwXc.h.+X<Xq.t p.sXsXfX0.i.bXcXvXbX7X[ S.<.=.F.P.^.|.|.!.K.G.D.2.-.#.%.L 2 & J -XkXkXkXkXkXkXkXkXkX",
"kXkXkXkXkXyXqX=X1X<Xd.) m OXsXsXW.W 0.cXdXdX-XM.N.<.<.<.F.,X4X5X|.!.P.K.G.2.-.#.@./ f 6 b =XkXkXkXkXkXkXkXkXkX",
"kXkXkXkXkXuXx.2X1XW.#X#Xk OXsX-X! A d =XNXvXgXb.v.=.=.1.F.|.5X5X|.!.P.'._.2.2.1.@./ K p F =XkXkXkXkXkXkXkXkXkX",
"kXkXkXkXkXwX3X1X1Xg.d.dXb u.dXp.f 9 5 H vXbXgXw.` @...1.1.{.4X4X,X}.P.G.]._.2.1.J.B.K p 6.qXhXkXkXkXkXkXkXkXkX",
"kXkXkXkXkX-X2X2X1Xf.! mXi.7.=Xy t 3 h r f.mX8XI T | ..1.2.P.4X4X4X}.P.G.G._.G.G.H.w.R F 6.=XhXkXkXkXkXkXkXkXkX",
"kXkXkXkXkX2X@X2X1Xf.0.VXpX7.n $ f 7 5 s z nX8XB X.| -.2.G.P.|.5X4X|.!.K.'._.K.K.` E ! ! 6.=XhXkXkXkXkXkXkXkXkX",
"kXkXkXkXkX%X7X%X%Xg.d bXcX7.$ t R g 2 G f ' T.q X.-.-.2.G.!.;X8X5X|.!.!.{.K.H.I 7 3 6 $ n qXhXkXkXkXkXkXkXkXkX",
"kXkXkXkXkX%X<X<X+X@Xa z.cX9.$ z ~ g g z z g N U X.#.-.2.G.J.;X:XR.V.v.H.!.K.%.B B @ . O 7.=XhXkXkXkXkXkXkXkXkX",
"kXkXkXkXkX$X#X<X+X1Xl p fXf.s R ^ j j Z f 7 B %.#.-.>.-.S.H.T.M.E Q ( %.K.K.I b.7XB % m p.c.jXkXkXkXkXkXkXkXkX",
"kXkXkXkXkX#X<X6XU.+X! f W.U.f R z z z z z g B O.#.#.....S.H.w.u > 0 ( %.!. X` v.H.u j M.9.j.uXkXkXkXkXkXkXkXkX",
"kXkXkXkXkX#X<X<X~.4XW 2 Q q.5 z k z l p 5 9 L U o. .| | I 1 > @ . N N.H.{. X*.H.H.v.R.M.E z.wXkXkXkXkXkXkXkXkX",
"kXkXkXkXkX<X/.~.#X6X' 7 L ] 9 j k k l 8 < 2 B X.#.} w 1 > > z Y.9 I !.P.K.'.S.@.G.K.H.v.I 9.wXkXkXkXkXkXkXkXkX",
"kXkXkXkXkX<X)./.).4XQ.0 0 P 3 3 k b b W R 5 B O.o.;.:.#.*./ 9.9.Q { I.P.1.G.'.| #.:.:.*.` ! wXkXkXkXkXkXkXkXkX",
"kXkXkXkXkX#XC./.Q.4X~.9 j j K 8 r c J S @XY.g O.;.#.D.[. X^.~.~.^.}.,X XS.D.'.#.| :.n.%.B 0.wXkXkXkXkXkXkXkXkX",
"kXkXkXkXkX/.W././.~.T.K g z f.0.s c S : u.bXt.( X.#.>._.'.}.,X|.P.}.4X{.H.n.L.>.o.#.n.v.N i.wXkXkXkXkXkXkXkXkX",
"kXkXkXkXkX#XW././.T.Z.] 7 R f.+XF a v : - -XbX] V #.#.>._. X,X|.}.,X,X!.v.*.L..X:.#.v.] B h.aXiXkXkXkXkXkXkXkX",
"kXkXkXkXkX#X).Q.(.Q.Z.T.9 z R e.b & S : v n mX:XI U  .#.:.G.{.{.}.}.}.!.N.*.n. X:.&.H./ B z.jXiXkXkXkXkXkXkXkX",
"kXkXkXkXkX#XA.E.(.;XT.^.L g z ~ ~ 4 S 5.S - +XmXm.U U  .#.:.D.K.'.P.!.!.J.n.&.@.| X.v.Q G z.jXiXkXkXkXkXkXkXkX",
"kXkXkXkXkX#Xa.E./.4X^.Q.] g Q ~ s.l a 5.v a f.mX7XO.X.o.#.#.:.D.G.F.!.|.|. X[.n.*.@.] ~ f u.jXkXkXkXkXkXkXkXkX",
"kXkXkXkXkX$Xa.E.Z.4X^.J.Z.0 Q Q U.~ 4 D - r Y.7XmXv.( X.#.,.>.>.G.G.{. X X X.X`.;.U B ~ t y.jXkXkXkXkXkXkXkXkX",
"kXkXkXkXkX#Xa./.B.Q.4XV.Q.L K Q K B.p a $ ! Y.r.vX7XI %.o.>.>.,.D.G.`.[.L.;.,. .w w B ~ r y.uXkXkXkXkXkXkXkXkX",
"kXkXkXkXkX$XC.Q.C.E.6XB.Z.[ L ' N B.f p Z f.+Xm +XgX( b.&.:.,.>.D.D.D.;.} } o. .+.V B C $ y.hXiXkXkXkXkXkXkXkX",
"kXkXkXkXkX7XW.C.C.C.4XQ.w.Q.' ' Q ' Q > ~ W.0.p.@XvXY.E %.n.,.>.>.m.m.;. .o.;.+. .w ( u # k.hXiXkXkXkXkXkXkXkX",
"kXkXkXkXkXkX#X_ C.a.Q.4Xa.Q.w.Q / L V.N b.:XG l 2XsX0.R b.H.;.#.:.:.:.n.;.o.} +.o.O.b.$ $ c.hXiXkXkXkXkXkXkXkX",
"kXkXkXkXkXkX%X_ s.s.s.6X).C.B.Q / / / @.!.;Xq.+ h.pX9.l E v.:.:.#.&.n.D.`.[.XX.Xm.m.^ + - k.hXkXkXkXkXkXkXkXkX",
"kXkXkXkXkXkX-Xd._ C._ /.<XA.B.L K ] q #. X^.W H c 3XpXb @ 0 ` *.@.1.D.n.D.[..X[.m.b.5   - 0XuXkXkXkXkXkXkXkXkX",
"kXkXkXkXkXkXsXs.A U.W [ 6XB.B.K 9 Q I &.}.^.R 0.g.u.=X+Xf < > 1 1 q Y *.H.L.m.m.b.7 % r ; l.aXkXkXkXkXkXkXkXkX",
"kXkXkXkXkXkXkXrX*XtX-Xr.~.$XB.K 3 g 0 P !.;XQ.w.U.R w.V.] I q q q 1 > > 3 7 u , O . > / ' K 9.&XrXkXkXkXkXkXkX",
"kXkXkXkXkXkXkXkXkXkXkXkXrXtX%Xr.^ ~ E E $X7X%XY.M.M.>X>XR.R.H.H.R.R.b.^ x y e y y C ^ b.H.b.t.p.*XkXkXkXkXkXkX",
"kXkXkXkXkXkXkXkXkXkXkXkXkXkXlXzXzXzXzXzXlXkXlXzXzXzXlXlXlXlXzXzXzXzXzXxXMXMXMXMXMXxXxXzXzXzXzXzXkXkXkXkXkXkXkX",
"kXkXkXkXkXkXkXkXkXkXkXkXkXkXkXkXiXiXiXiXkXkXkXkXkXkXkXkXkXkXkXkXkXkXkXkXiXiXiXiXkXkXiXiXiXiXkXkXkXkXkXkXkXkXkX",
"kXkXkXkXkXkXkXkXkXkXkXkXkXkXkXkXkXkXkXkXkXkXkXkXkXkXkXkXkXkXkXkXkXkXkXkXkXkXkXkXkXkXkXkXkXkXkXkXkXkXkXkXkXkXkX",
"kXkXkXkXkXkXkXkXkXkXkXkXkXkXkXkXkXkXkXkXkXkXkXkXkXkXkXkXkXkXkXkXkXkXkXkXkXkXkXkXkXkXkXkXkXkXkXkXkXkXkXkXkXkXkX"
};
