/* XPM */
static char *fcc57c8654544d59bcd20362b0b78ca8[] = {
/* columns rows colors chars-per-pixel */
"50 50 245 2 ",
"   c #0A0001",
".  c #180509",
"X  c #1A0816",
"o  c #1E1617",
"O  c #240B15",
"+  c #281619",
"@  c #2E0E11",
"#  c #1D1022",
"$  c #261827",
"%  c #351B26",
"&  c #361C34",
"*  c #1B2524",
"=  c #29292B",
"-  c #392529",
";  c #2E2235",
":  c #382833",
">  c #373737",
",  c #2E3736",
"<  c #462C1F",
"1  c #452B2A",
"2  c #593529",
"3  c #442936",
"4  c #463134",
"5  c #593C3B",
"6  c #563538",
"7  c #532E25",
"8  c #653D2F",
"9  c #78452D",
"0  c #6A4536",
"q  c #744531",
"w  c #7C523C",
"e  c #342A42",
"r  c #4D3C47",
"t  c #623C47",
"y  c #3A4443",
"u  c #4D4448",
"i  c #58474A",
"p  c #594A54",
"a  c #544C51",
"s  c #654748",
"d  c #78574C",
"f  c #675357",
"g  c #775956",
"h  c #6F4856",
"j  c #75644E",
"k  c #5E5566",
"l  c #7E4C63",
"z  c #6D5C61",
"x  c #745B60",
"c  c #684F62",
"v  c #776769",
"b  c #767375",
"n  c #8F4E33",
"m  c #A1623F",
"M  c #8B5C47",
"N  c #9D5E47",
"B  c #AA5B45",
"V  c #986246",
"C  c #896657",
"Z  c #996855",
"A  c #97775B",
"S  c #8A704B",
"D  c #AB6648",
"F  c #A97149",
"G  c #A76955",
"H  c #A77359",
"J  c #B37B56",
"K  c #B6664E",
"L  c #8A576C",
"P  c #AC5B71",
"I  c #876664",
"U  c #916E6E",
"Y  c #8D7165",
"T  c #987965",
"R  c #977876",
"E  c #8E6A73",
"W  c #A57968",
"Q  c #B46E74",
"!  c #C67763",
"~  c #C5735B",
"^  c #9B825D",
"/  c #A5855E",
"(  c #B6815A",
")  c #968573",
"_  c #A68A67",
"`  c #B98A69",
"'  c #AA9267",
"]  c #A88876",
"[  c #B88C76",
"{  c #AD9373",
"}  c #AC9778",
"|  c #B89A78",
" . c #B3936D",
".. c #BBA27D",
"X. c #C98B6D",
"o. c #C49569",
"O. c #C6897A",
"+. c #C59978",
"@. c #D49A7A",
"#. c #D08C79",
"$. c #C7A37C",
"%. c #D8A27E",
"&. c #887D84",
"*. c #A8738A",
"=. c #D17A91",
"-. c #CA778C",
";. c #9F948E",
":. c #AA8C84",
">. c #AC978C",
",. c #B99987",
"<. c #B89D93",
"1. c #A69B95",
"2. c #BCA383",
"3. c #BDA58D",
"4. c #B9A789",
"5. c #BDA395",
"6. c #BAA59B",
"7. c #B9A796",
"8. c #ADA39A",
"9. c #AA9FA5",
"0. c #BAACA6",
"q. c #BEB1AB",
"w. c #BEB1B8",
"e. c #C59C85",
"r. c #C88898",
"t. c #D5859B",
"y. c #C19E96",
"u. c #D79888",
"i. c #C4A384",
"p. c #C4A48C",
"a. c #CAA58C",
"s. c #C4AB8C",
"d. c #CCAA8C",
"f. c #C9A984",
"g. c #D6A989",
"h. c #CEB388",
"j. c #D2B58D",
"k. c #CCA493",
"l. c #CCAD93",
"z. c #C3AC9B",
"x. c #CBAB9B",
"c. c #C4AB93",
"v. c #D7AA96",
"b. c #CDB394",
"n. c #CCB39B",
"m. c #C9B496",
"M. c #D3B293",
"N. c #D3B49C",
"B. c #D5BC9B",
"V. c #DCBC9C",
"C. c #DAB797",
"Z. c #E5AE97",
"A. c #E4BC9A",
"S. c #E0AA86",
"D. c #D195A9",
"F. c #C3ACA3",
"G. c #CBABA5",
"H. c #D7AEA5",
"J. c #CAB4A8",
"K. c #D4BCA5",
"L. c #DBBCA2",
"P. c #D3B9A8",
"I. c #CDB9B4",
"U. c #CABAB8",
"Y. c #D4BBB4",
"T. c #D4BBB6",
"R. c #E1B7A8",
"E. c #E2A5B5",
"W. c #DBC29B",
"Q. c #E2C09C",
"!. c #DDC2A4",
"~. c #DBC3AB",
"^. c #D3C3AC",
"/. c #DBC4BD",
"(. c #DCCABB",
"). c #D8C5B6",
"_. c #DED1BE",
"`. c #E4C4AB",
"'. c #E7C9A8",
"]. c #EBD3AD",
"[. c #E7D0AE",
"{. c #E4CDB4",
"}. c #EACCB4",
"|. c #EBCCBB",
" X c #E5C7B6",
".X c #ECD3BD",
"XX c #EAD4BA",
"oX c #F5DABC",
"OX c #F4D7B9",
"+X c #F8D2AF",
"@X c #D8C9C5",
"#X c #DDD2CD",
"$X c #D8CED1",
"%X c #DDD6DA",
"&X c #DAD5D5",
"*X c #CFC3C5",
"=X c #E4CDC3",
"-X c #E7CFC8",
";X c #ECD3C4",
":X c #E8D9C7",
">X c #F4DCC4",
",X c #F7DAC7",
"<X c #E3D7D6",
"1X c #F6DAD5",
"2X c #EFE1C9",
"3X c #F6E2C8",
"4X c #EDE3DA",
"5X c #FBE4D4",
"6X c #FEEBD3",
"7X c #FEEBDB",
"8X c #F7E6D8",
"9X c #FDF2DE",
"0X c #FFF0D3",
"qX c #FDD9E2",
"wX c #FFEEE3",
"eX c #FDEFED",
"rX c #F6E7E4",
"tX c #FEF4E5",
"yX c #FFFAE4",
"uX c #FEF4EC",
"iX c #FFFBED",
"pX c #F6F3EC",
"aX c #EDFBF7",
"sX c #F5F5F5",
"dX c #FEF5F3",
"fX c #FFFDF4",
"gX c #FDF6FB",
"hX c #F6FEFD",
"jX c #FEFAFE",
"kX c #FBFFFF",
"lX c #FAFFFF",
"zX c #FAFFFE",
"xX c #FFFFFD",
"cX c #FEFEFD",
"vX c #FFFDFF",
"bX c #FCFFFF",
"nX c #FDFEFF",
"mX c #FFFEFF",
"MX c #FEFFFF",
"NX c white",
"BX c #FEFEFF",
"VX c #FDFDFD",
"CX c #FEFEFD",
"ZX c #F6FCF7",
"AX c #EAE6E7",
/* pixels */
"fXfXdXxXjXxXxXxXjXxXxXxXxXxXfXfXxXxXxXzXhXhXfXfXfXfXfXfXfXxXxXxXxXfXfXdXfXfXfXfXfXfXxXxXxXzXzXzXxXxX",
"fXfXdXxXjXxXjXxXjXxXxXxXxXxXfXxXxXxXxXxXzXhXhXfXfXfXfXfXxXxXzXzXxXxXxXxXfXfXfXfXfXxXxXxXxXzXzXzXxXxX",
"fXfXfXxXxXxXjXxXxXxXxXxXxXxXxXfXxXxXxXxXzXzXzXxXfXfXfXxXxXxXzXzXjXjXZXZXzXxXxXxXxXxXxXxXxXxXxXxXxXxX",
"fXfXfXfXxXxXxXxXxXxXxXxXxXxXzXZXxXxXxXxXzXzXzXxXxXxXxXxXxXxXxXzXxXxXxXxXxXzXzXzXxXxXxXxXxXxXxXxXxXxX",
"zXxXxXZXfXfXfXZXfXfXfXzXxXzXzXzXxXxXxXxXxXzXxXxXxXjXjXjXjXZXZXZXZXjXxXxXxXzXzXzXzXzXxXxXxXxXfXxXxXxX",
"zXzXxXfXfXfXfXfXfXfXfXfXhXzXzXzXxXxXxXxXxXxXxXxXgXjXjXjXfXfXfXfXfXfXfXxXxXxXxXzXzXzXxXxXxXfXfXfXxXxX",
"zXhXxXxXfX<X<X4XrXuXfXfXfXfXzXxXxXxXxXxXxXxXxXxXfXfXdXwX7X7X7X9XiXdXdXfXfXxXxXxXxXxXxXxXxXfXfXfXxXxX",
"zXsXxXfX4X8.1.6.I.@X8XdXfXfXfXfXfXfXfXfXfXfXfXdXdX7X;XH.p.i.i.s.p.H.;XwXdXfXfXjXxXxXxXxXxXxXfXxXxXxX",
"zXxXsXfXfX0.>.F.z.P.P.J.@XuXdXdXfXiXfXfXfXiXiX7X;XR.C.g.+.+.$.o.o.W W a.,XiXdXdXfXxXxXxXxXsXxXsXxXxX",
"xXxXjXfXdX-X<.>.5.<.x.Y.H.<.G.=XiXiXiXiXiXyX6X.XV.e.+.%.@.o.o.F J ( J H [ }.wXiXuXfXfXxXxXxXxXxXxXxX",
"xXxXxXfXuXdXF.] :.,.e.k.H.R.v.e.] 7.).5X9X6X!.| f.$.@.@.( ( o.J D F F G H [ `.tXiXuXrXrXAXxXzXzXxXxX",
"xXxXxXfXdXdX-X>.R W ] [ O.O.u.Z.e.,.,.,.c.B.M.f.$.+.o.` ` ` / ( J m n V G H a.5X1X).@X#X@XxXxXhXxXxX",
"xXxXxXfXfXfXdXT.Y T W W H G ! #.Z.V.k.,.d.M.i.| ` ` e.| [ C 0 W H V n 9 V H [ C.N.G.Y.q.&XxXxXzXxXxX",
"xXxXxXxXfXsXfX8X>.W Z G J X.~ B u.v.e.[ i.d.$.+. .a.k.d 2 - + g C M q 9 M M Z [ p.n.>.;.eXxXsXxXxXxX",
"xXzXxXxXxXfXfXdX5Xy.Z G K B K ! ! u.u.+.g.g.| | a.,.d O   X $ $ g C 0 7 8 q w A A T Y 8.dXxXsXxXxXxX",
"xXhXxXxXsXxXsXfXdX5Xx.W N D B n B O.u.@.g.g.+.| p.T 1 % o X e # 4 I g 7 8 d 0 2 @ < v 4XfXfXxXzXxXxX",
"xXxXxXxXzXzXzXxXfXfXtX|.k.Z H n N @.@.X.%.%.@.+.k.:.6 - . X X % s 7 g g s g 5 1 . o 1.fXzXhXaXhXxXxX",
"xXxXxXxXzXzXzXzXfXfXfXuX|.W T Z H Z.@.` @.S.g.[ N.G.g 1 O + % 5 5 d I d 5 f f f : u %XzXZXhXhXzXxXxX",
"xXxXxXxXzXzXzXxXxXdXuXdXwXx.,.] v.+XZ.` %.A.A.d.R.).<.Y 6 6 s t 5 g g C s 4 + X = u AXxXjXxXxXxXxXxX",
"xXxXxXxXxXxXxXxXxXfXdXdXdXwX1X`.,XOXM.+.g.C.A.'.l.,XT.:.:.U g I U R h i 1 4 +   o = $XjXxXjXjXjXxXxX",
"xXxXxXxXxXxXxXxXsXxXfXfXdXdXiXyXtX>X!.L.'.Q.A.oXOX;X1X=XG.y.,.] R I g z u > = = * y %XhXxXjXjXjXxXxX",
"xXxXxXxXxXxXxXxXjXxXgXfXdXfXdXfXiX6X>XoX>XOX'.OX6XyXwX1X-XG.I I R x f p r , = , * b hXxXjXxXjXjXxXxX",
"xXxXxXxXxXxXxXxXxXxXgXxXxXfXfXfXtX2X>X.XoXoX`.{.7X1X/.F.R I 6 1 - z f : p i r % z w.jXxXjXxXxXxXxXxX",
"xXxXxXxXxXxXxXxXjXxXxXxXsXzXZXfXiX:X.X.XoX>X}.>X7X=X:.i % 4 - h O -   . f : z 9.%XjXxXgXxXxXxXxXxXxX",
"xXxXxXxXxXxXjXxXxXxXxXxXzXzXhXhXtX:X~.~.OX>X.X;X1XT.z $ : $ X c L 3 % O i : 9.xXzXzXzXhXzXzXzXxXxXxX",
"xXxXxXxXxXxXxXxXxXxXxXxXzXzXhXhX9X;XK.N.`.}.|.|.:X@Xv $ ; $ $ & *.l t % : &.xXaXaXaXhXhXhXzXxXzXxXxX",
"xXxXxXxXxXxXxXxXxXxXxXzXzXzXhXfXtX>XK.l.L.}. X|.@XrX&.: u r ; & l r.L h t v dXxXzXzXzXZXzXxXxXxXxXxX",
"xXxXxXxXxXxXxXxXxXxXxXxXxXxXzXfXtX6X~.l.N.}.|.;X-XU.<Xb ; k a 3 @ *.L L l 6 E qXgXdXdXjXjXxXjXxXxXxX",
"xXxXxXxXxXxXxXxXxXxXxXxXxXxXxXfXyX7X{.c.b.`.}.;X;X@XU.$Xv $ f r s E D.P P -.P =.t.t.E.qXgXjXjXxXxXxX",
"xXxXxXxXxXxXxXxXxXxXxXxXxXxXxXfXiX9X.Xn.l.V.'.>X,X).J.0.q.E 4 f x 6 E r.r.*.-.=.t.r.D.1XgXjXxXxXxXxX",
"xXxXxXxXxXxXxXzXxXxXxXxXxXxXxXfXiXyX>XK.c.M.`.oX|..X(.<.6./.>.s i p - O + g 1XwXdXeXeXdXxXxXzXzXxXxX",
"xXxXxXxXxXxXxXzXxXxXxXxXxXxXjXfXfXyX2XK.d.d.V.OX>X;X).(.).6.5.6.1.b ) z a 0.pXfXfXfXhXZXZXzXzXxXxXxX",
"xXxXxXxXxXxXxXzXxXxXxXxXxXxXxXxXfXyXoX!.f.$.A.}.;X<X<X#XU.0.6.6.I./.(.F.:XiXdXxXxXzXzXhXhXfXxXxXxXxX",
"xXxXxXxXxXxXxXxXxXxXxXxXzXzXzXxXiXyX>X`.f.+.C.}.:X#X&X&X$X*XY.J.Y./.P.m.3XtXfXjXxXzXzXhXfXfXfXxXxXxX",
"xXxXxXxXxXxXxXxXxXxXxXxXxXxXxXxXfXtX{.V.M.f.M.P.=X#X%X%X<X-X/.Y.T.Y.K.m.6X9XfXgXxXzXzXzXhXfXxXxXxXxX",
"xXxXxXxXxXxXxXxXxXxXxXxXxXxXxXxXiX8Xn.c.V.C.M.n.I.@X%X%X$X@X/.T.Y.z.{.m.oXiXfXjXxXzXzXhXhXfXxXxXxXxX",
"xXxXxXxXxXxXxXxXxXxXxXxXxXxXxXfXtX2Xm.a.M.a.a.l.F.U.*X*X*X/.T.T.G.z.~.4.m.9XfXxXxXzXzXzXhXxXxXxXxXxX",
"xXxXxXxXxXxXxXxXxXxXxXxXxXxXxXfX9X:X3.,.V.M.d.n.P.J.q.U.U.I.J.G.J.P.c.| ] ^.fXfXxXzXzXzXzXxXxXxXxXxX",
"xXxXxXxXxXxXxXxXxXxXxXxXxXxXfXfX:X~.{ | '.'.!.`.P.F.0.I.I.F.5.5.n.3.2.{ ^ 4.tXgXxXxXzXzXfXxXxXxXxXxX",
"xXxXxXxXxXxXxXxXxXxXxXxXxXfXfXfX2X[.2...V.j.s.n.c.7.J.).^.z.,.3.3.T i._ ^ 4.8XxXxXxXzXzXxXxXxXxXxXxX",
"xXxXxXxXxXxXxXxXxXxXfXxXxXfXfXrX{.'.B.S $.j.{ 2.n.T ) ;Xz.x.p.c.p.T i...2.yXdXfXxXxXzXzXxXxXxXxXxXxX",
"xXxXxXxXxXxXxXxXxXxXxXxXfXfXfXtX!...'.$.j.h.W.} _ m.} s.s.b.| { { { j.| W.6XfXdXxXxXzXzXxXxXxXxXxXxX",
"fXfXxXxXxXxXxXxXxXxXxXxXdXfXfX9XW.' W.].f.^ ].W...[.2.A oX| 2.!.S M.C.h.f.{.iXfXxXxXxXzXxXxXxXxXxXxX",
"fXfXxXxXxXxXxXxXxXxXxXfXfXfXfX8XOXh.' '.W.s.B...B.W.| S ].j S b._ `.V.j._ c.7XfXxXxXxXzXfXxXxXxXxXxX",
"fXhXxXxXxXxXxXxXxXxXfXfXfXfXiX:X[.].' | b.>X3Xs.b.[.W.f...' A B.V.C.Q.| ' 2.tXfXxXxXxXzXfXxXxXxXxXxX",
"fXhXxXxXxXxXxXxXxXxXfXfXfXfXtX(.b.'.W.} } n.0X3XoXV.i._ { OXV.N.'.d.j.$./ 2.8XfXxXxXxXhXfXfXxXxXxXxX",
"fXhXxXxXxXxXxXxXjXxXfXfXfXfXtX(.B.V.OXb.m.3.n.~..X}.oX| a.c.}.}.l.d.$.f.^ 2.;XfXxXxXxXhXfXfXxXxXxXxX",
"xXxXxXxXxXxXxXxXjXxXxXfXfXfXyX_.b.V.'.l.~.{.3.{.c.{.>X~.5X}.L.p.l.d.|  .2.3.1XdXxXxXxXfXfXxXxXxXxXxX",
"xXxXxXxXfXxXxXxXxXxXxXxXfXfXiX:XK.N.l.l.N.n.K..X3X5X(.)..X~.a.[ e.i.i.a.n.P.:XfXfXxXxXxXxXxXxXxXxXxX",
"xXxXxXfXfXfXxXxXxXxXjXxXfXfXiX:X~.L.l.l.l.l.P. X8X7X@X(..XK.e._ | i.l.N.~.^.:XfXfXfXxXxXxXxXxXxXxXxX"
};
