/* XPM */
static char *_898e611cd81430aedfb457d5d49893fuKc54eKYwP75JxhV[] = {
/* columns rows colors chars-per-pixel */
"50 50 242 2 ",
"   c #B9657F",
".  c #BC768C",
"X  c #BD7A9A",
"o  c #BB7891",
"O  c #B9638A",
"+  c #C2688C",
"@  c #C6768C",
"#  c #C76993",
"$  c #C57296",
"%  c #C37B94",
"&  c #CB759A",
"*  c #CA7794",
"=  c #D6779B",
"-  c #D26A8F",
";  c #E17B9D",
":  c #D27AA3",
">  c #DA7CA3",
",  c #D877A4",
"<  c #E27CAB",
"1  c #E37CA4",
"2  c #BE8495",
"3  c #BE8CA2",
"4  c #BC99A3",
"5  c #BCA7AE",
"6  c #C5829C",
"7  c #CD849D",
"8  c #C8889B",
"9  c #D3849B",
"0  c #D2889C",
"q  c #DC869E",
"w  c #CB83A3",
"e  c #C38BA2",
"r  c #CC8BA5",
"t  c #CE8DAB",
"y  c #C788A7",
"u  c #D583A4",
"i  c #DB85A3",
"p  c #D58BA4",
"a  c #D98BA4",
"s  c #D38BAC",
"d  c #DD8BAA",
"f  c #D586AB",
"g  c #C393A7",
"h  c #CD94A4",
"j  c #C593AA",
"k  c #CC93AB",
"l  c #CA9AAE",
"z  c #C49AAA",
"x  c #D294A5",
"c  c #D394AD",
"v  c #DB93AC",
"b  c #D59CAD",
"n  c #DE99AE",
"m  c #DB8CB3",
"M  c #DA89B3",
"N  c #CC9BB3",
"B  c #CA9AB3",
"V  c #D395B3",
"C  c #DC94B3",
"Z  c #D49BB2",
"A  c #DC9DB4",
"S  c #DD94B9",
"D  c #D59CB9",
"F  c #DC9DBB",
"G  c #E48AA4",
"H  c #E385AC",
"J  c #E48BAC",
"K  c #EC8DAB",
"L  c #E583A5",
"P  c #F38EAC",
"I  c #E593AE",
"U  c #E698AC",
"Y  c #F395AF",
"T  c #E483B2",
"R  c #EA86B2",
"E  c #E38CB3",
"W  c #EB8CB4",
"Q  c #E38EB9",
"!  c #ED8BBC",
"~  c #F48CB4",
"^  c #F38DBC",
"/  c #F284B3",
"(  c #E494B3",
")  c #EB93B4",
"_  c #E49CB4",
"`  c #EB9CB6",
"'  c #E494BB",
"]  c #EB93BB",
"[  c #E39CBC",
"{  c #EB9DBB",
"}  c #F393B1",
"|  c #F29CB4",
" . c #F49CBE",
".. c #FB9DBE",
"X. c #F895BB",
"o. c #CEA4BA",
"O. c #CEA6B5",
"+. c #D5A2B4",
"@. c #DAA3B4",
"#. c #D4A4B9",
"$. c #DCA3BB",
"%. c #D5ACBD",
"&. c #DCAABE",
"*. c #D4A9B0",
"=. c #D5B1BF",
"-. c #DDB2BE",
";. c #C8A2AF",
":. c #E2A3B6",
">. c #E3A3BC",
",. c #EBA4BC",
"<. c #E3ACBD",
"1. c #ECA5B7",
"2. c #F3A3BD",
"3. c #F6ABBD",
"4. c #E5B5BD",
"5. c #F2B0BC",
"6. c #DF9CC1",
"7. c #E49DC2",
"8. c #EB9CC2",
"9. c #F395C2",
"0. c #F29DC5",
"q. c #FB9DC9",
"w. c #F99CC7",
"e. c #DCA5C2",
"r. c #D6ABC3",
"t. c #DBADC3",
"y. c #D7A9C6",
"u. c #D6B4C3",
"i. c #DCB3C4",
"p. c #DCB9C5",
"a. c #DDB5CA",
"s. c #DCBBCD",
"d. c #D5B7CA",
"f. c #DEBAD4",
"g. c #CFB8C2",
"h. c #E3A4C2",
"j. c #ECA3C4",
"k. c #E3ABC3",
"l. c #EBABC4",
"z. c #ECA4C9",
"x. c #E5ACCA",
"c. c #ECABCA",
"v. c #F2A5C4",
"b. c #FDA3C5",
"n. c #F3ACC5",
"m. c #FDABC3",
"M. c #F4A4CA",
"N. c #FDA5CB",
"B. c #F3ABCC",
"V. c #FCACCC",
"C. c #E4B2C5",
"Z. c #EBB4C5",
"A. c #E1B9C6",
"S. c #E4B5CA",
"D. c #ECB3CB",
"F. c #E5BBCC",
"G. c #ECBACC",
"H. c #E8B9C6",
"J. c #FBB0C6",
"K. c #F2B3CC",
"L. c #FDB3CC",
"P. c #F3BACD",
"I. c #FBBBCE",
"U. c #F3B5C5",
"Y. c #F5ADD2",
"T. c #FCADD2",
"R. c #F4A6D0",
"E. c #EDB5D2",
"W. c #E5BCD2",
"Q. c #ECBCD2",
"!. c #EEBCDA",
"~. c #F4B4D3",
"^. c #FCB3D4",
"/. c #F3BCD3",
"(. c #FCBCD4",
"). c #FEB4DB",
"_. c #F5BCDB",
"`. c #FEBCDC",
"'. c #FFBDE2",
"]. c #DFC2CD",
"[. c #DDC3D2",
"{. c #DBCFD4",
"}. c #E4C4CD",
"|. c #EAC1CC",
" X c #ECCBCF",
".X c #F3C2CE",
"XX c #F8C3CB",
"oX c #E5C3D1",
"OX c #ECC3D4",
"+X c #E5CAD5",
"@X c #ECCAD4",
"#X c #E7C3DB",
"$X c #ECC4DA",
"%X c #E5CCDA",
"&X c #EDCCDC",
"*X c #F3C3D4",
"=X c #FCC2D5",
"-X c #FDCBD4",
";X c #F4C4DA",
":X c #FDC3DC",
">X c #F3CADB",
",X c #FDCBDC",
"<X c #F3CED5",
"1X c #ECD3DD",
"2X c #EAD6DD",
"3X c #F3D2DE",
"4X c #FCD3DE",
"5X c #F8D6DB",
"6X c #EECAE3",
"7X c #FEC4E3",
"8X c #F3CCE3",
"9X c #FECCE3",
"0X c #FFCDEB",
"qX c #FAC4E6",
"wX c #EED3E1",
"eX c #EADFE3",
"rX c #F3D4E3",
"tX c #FDD3E4",
"yX c #F4DBE4",
"uX c #FBDAE4",
"iX c #FED4EB",
"pX c #F4DCEB",
"aX c #FEDBEB",
"sX c #F5D5EB",
"dX c #FFCBF1",
"fX c #FFD4F2",
"gX c #FFDCF3",
"hX c #FFDEFA",
"jX c #FBE3E6",
"kX c #FDE3EC",
"lX c #FDE9EE",
"zX c #F5E1E7",
"xX c #FFE3F3",
"cX c #FEECF5",
"vX c #FFE4FB",
"bX c #FFECFB",
"nX c #F4E4F2",
"mX c #FEF3F5",
"MX c #FFF6FE",
"NX c #FFF3FE",
"BX c #FFFBFD",
"VX c #EEE3EB",
/* pixels */
">.Z.Z.G.C.aXxXxXoXaXbXcXpXxXxXs.OXtXiX>X>XzXmXmXyXaXv.) = L 2.V.= - / ~ N.s iXgXxX[.o.Q.:XZ A.O.tX|.",
",X(.C.G.*XaXbXxXtXoXoXaXxXrX1X}.tX,X;XOX3XkXcXcXcXxX:Xb.= 1 N.`.N.X.w.1 H w 0XsXNXgXQ.:X9X/.OX;.>XC.",
"9X,X:XaXtXOXaXtX>X#.#.tXtXoX1XkXaXOXi.F.rXcXMXMXbX9X`.b.- ; ..T.^.N.q., > $ x.S.bXbXiX/.l.=X>XA.*X&.",
"9X9X/.9XF.%.*X,XG.k.>.=XF.OXxXMXxX@X%.u.&XcXMXMXxXG.n.) = 1 L ) N.X.q.R ~ : [ x.iXgXiXB.Z :X;XOXG.<.",
"c k.C.aXtX>XC.k I.J._ l.$.>XcXcXxX3Xp.%.].zXcXcXxX;Xv.J ~ ~ = W  . .N.~ X.] N.^.`.`.7X~.c.iXOX%./.P.",
"8 Z G.tXtXaX/.>.,. .I 2.c S.aXbXaXrXoXs.+XkXcXkXkXaX(.) ..K = ) a v.V.> H  .0.' M.M.Y.B.~.gX>Xi.:X(.",
"r Z aXxXcXaXG._ i K G m.v <.rXbXtX>XOX&XkXbXcXpXrXxX9Xn.v.u u a r n.L.$ & W H & ' ' 8.S c.iXsXF./.K.",
"(.A aXOXkX>X<.a G L ; b._ P.>XuXaX;XOXtXbXxX1X[.wXxXgX:Xl.7 p . l.=X(.% & E H > ] m m t _.gXsXz <.A ",
"7X>.D.*XxXP.I.(.K P P G U Z.=.O.,Xk.G.aXxX=.xXwXyXkXaXaXl $.>.Z./.tXaXiXK.( : O E T.~.7XgXvXgXu.$.l.",
"7XD.$.<./.x 1.m.G Y } | J.,X@X=.D.K.:XiX;XiX$XxX&XcXbXxXu.>XtXiXQ.aXbXgXiX^.[ ' 0.Y.fXhXvXvX&Xr.k.D.",
"`.K.F K.=X. a ` G | | L.aXxXxX*Xc _ k &.Q.t.F.tX&XrXkXbXxXiXtXiXG.OXtX;XvX9X[ 8.[ C fXvXxXbXOXQ.=X:X",
"~.F C ^.9X9 q 3.3.m.U I.aX-XaXiXv.v.6 c G.e./.Q.%.u.%XpXbX>X=X:X9XF.aXW.aX;Xc.).).h.fXvXvXvX;X:Xk.Z.",
"~.r C ( V.G q 3.=XU.x Z.|.z -.iX^.V._ s 6 9X>.Z 3 r.wX+XsX9X9X^.:Xi.xX#Xa.r._.hX_.E.9XvXaX;X/./.@.Z.",
").m 8.= K P q 9 5.4.*. X<X4 z =XV.N.v.C C `.V.[ h.C.>XsXbXiX^.( F j 8X&Xd.r.!.`.F E.F.9X;X$.>.A C.*X",
"'.' b.H } X.Y @ x 4. XjXmX@X%.G. .W u w ^.[ V.V.7Xk.W.xXxXK.( > 8.D #XgXxXsX;XF x.:Xt.F.>Xk._ 7 <..X",
"`.s ( ) b...(.1.b <XjXjXMXmX|.G.^.0.v 6 ~.iXB.0XB.$.S.;X&.r J ] 7X9X6XxXNXvX8Xk.h.D.g N tXtXV.v *XuX",
"Q.D.B.2. .`.7X( k A.jXzXcXmXkXaX:X0Xx.j B :X^.'.:Xk.9XaXQ.o H T.fXbXbXbXMXbXgX7Xh.K.&.3 :X9Xn.A tXkX",
"p.i./.:X^.T.b.s A F.kXkXuXuX4X4X9X~.e.o.B ;X(.>.c.x.xXaX=X>.M.T.fXvXpXnXMXNXgX/.l.:X;XS.aXaX=XG.rXyX",
"1X&XiXgX7X^.M.( c $.tXxXtX4X.XI.(.^./.F.t.tX9X/.>.V :Xl.$.D.l.>.~.9XrXxXMXxX!.N $.,XtXuXkXcXtXtXkXlX",
"kXuXtX/.j.B.^.M.d C `.iXI.U.>.,.j.9XiXG.$XxXgXvX9Xc j.C V K.k.$.9XvXgXyX%Xu.#.g &.,XtXkXyXzX1X5XmXcX",
"pXpX&Xt.k C M.T.] ] V.T.= 9 a ` { :X:X+.C.aXgXxXxXZ K.,.l./.C.&.#.;XtXpX1Xu.O.l &.*X}.yX2XyXjXmXmXmX",
"kXxXxX>X#.e C N.W R J J # d d ( A l.:XZ e F.xXaXoXg ,X(./.G.S.z #.F.s.[.%X&XaXaXG.-Xp. X1X+XyXcXBXBX",
"xXbXbXrXt.j V 8.W ^ < 1 & ..` ,.k.H.9X_ 8 A 4XuX}.5 aXtXtXG.>Xl F.rXpXxXbXxXxXxXxXxXH.-.|.O.i.@XmXmX",
"bXMXbXOXa.Q.~.^.M.'.T.R + ( _ P.>X4X:Xv _ A %.+XcX5 rXrXxXF.aXu.s.rXsXpXpXrXgXvXiXiX&.Z /.Z Z.tXcXmX",
"aXNXaXxXi.tX/.~.T.T.N.] ( j.>.aXuXkXaXc 7 <.4 d.eX{.wXxXxXtXbXoXB W.#XgXhXvX8XS.$.fXl.>.h.r C.S.pXnX",
"&./.9X>XOX;XE.x.h.z.s w w F K.iXtXkXxXP.<..X].2XBX{.g.cXbXbXpXrXy.E.x.x._.7XD.D F _.j.~.(.$.D.OXxXxX",
"A :.K.G.gXgXQ.t.B k.B D Z k.:X=XP.-XtXtX,X3XxXcXbX[.u.tXaXaX%XxXx.7.s [ 7X7X_.6.x.h.C ^.`.C.F.>XxXaX",
"7 7 7 A :XgXC.W.o.$X8XtXQ.:X:Xl.A x Z.4XuXjXNXbX+Xi.F.t.$X+X[.&X~.).'.'.'.' h.D.~.V C ~.(.:X&XaXaXtX",
"  @ * p [ (.S.aXwXpXbXxX9XgX(.j.v o Z.4XcXbXbXaXS.t.F.r.iXgXs.o.^.T.N.b.T.{ K././.c v n.U.tXkXcXaXtX",
"G G J G 2.l.;XgXcXnXbXxXaXxXn.` { p :XaXNXbXaX;Xe.S.F.tXvXbXQ.k.K.7X^.i * 7 U.,X=X>.0 a 0 XXuXcXkX4X",
"m.m.K } | ,.,XtXcXcXVXxXaX:X( I ` _ :X,XiX:X7Xl.h.;X8XxX8X;X~.`.<.U.n 7 7 ,.,XaXtXI.9 * . 1.-XjX4X-X",
"b.(.i m.a K.aXbXcXBXwXaX:XA i ) i { B.l.K.c ^.[ `.gXgX#Xy.y z.z.$.G.l.U.A @.G.aXtX,XU U 0 5.-XuX-XXX",
"V.) p :X*XxXbXbXMXxX;Xk.C i J E & $ ( `.C >.K.D.(.fXiX/.V 7.' S 7X0X`.:Xc &.*XxXxX,XtX<.8 ,X4X4X:._ ",
"`.( w ,XyXnXbXNXxXgX:X>.E ) b.N.N.W M.v.C r D.K.$.$.V F S Y.).Y.).Y.7X_.k D e e.gXtX*X+.+.tXtXtX% i ",
"'.) s /.$Xf.%X%XrXgXiXl.F v.).'.N.{ N.^.^.c.7XiXD.c r [ c.'.'.^.^.z.B.~.K.K.Z e P.9X:X<.Z.K.I.(.% 1.",
"'.^.^.`.7X;XiXsX8XxXvX/.F F 8.M.T.B.z.`.`.7X(.9X7Xh.F ~.'.dXdX^.[ z.s j.`.~./.X &.(.,XK.n.x 1._ v J.",
"N.q.0.v.z.c.7X0X8X$X8XS.e.e.6.Y.).B.s C [ M.j.^.fX7X`.~.).7XqXY.S T.7.^.7X9XiXc (.(.9X=XI.v J.a ` v.",
"9.E : E 8.M.'.fXiXd.d.f.6X0X7XfX`.z.s X C [ B.B.B.Y.z.w t S 7.V S C j.B.`.gXK.r K.K.9X:XJ.v m.9 ` ( ",
", , + < ! N.).0XvX#X6XsXvXhX!._.7X).B.C 8.v.B.8.8.M.8.w z.Y.^.R.B.[ z.^.~.iXk.>.A >.K._ U 0 U i ` ) ",
"M w.T ^ < ! Q 6.qXf.vXbXbXgXy.e.`.'.^.T.8.`.).M.N.).0.M ).).Y.z.z.c.c.`.k t Z :X9X=X>.6 U 2.J.J.N.^.",
"Q ] R ^ ^ T 8.7.D #XvXvXNXgX!.qXh.7X^.m m T.0.).T.w.9.N.' m ).'.h.V D ~.~.$.D.:XxX9Xe r o ,.=XL.^.N.",
"8.0.T W 9.9.' X D 8XgXgX6XhX0XhXiX7X[ f f ' Q ).T.E & $ M.7XM.).~.V E.fXiX/.D.iXxXaXC.e x :.,XiX .+ ",
"T.).0.] 0.T.`.F N 9XgX0Xy.fXiXgX9X~.>.j.M.B.8.'.T.M.m & 8.).8.`.7XZ _.vXvX;XN S.iXaX;X$.=XU.=X9X( = ",
"'.^.f s ~.fXgXx.k.;XiXE.#.E.~.x.l.K.:X:X(.B.h.Y.7.).).T.C u T.7X7Xe._.fXhXtXN g OX>X#.+.@.b U.P.v ( ",
"M.~.h.x./.9XgX9X:X/./.>.V F A t P./.iX,X$.e j k.e.~.7X0X~._ ^.:X`.7X7X7X0XgX9X#.*XaX;XaXZ.@.tXI.(.j.",
"9X(.D S.aXcXbX>X,X(.~.L.j.j.s C ,XG.aX9X&.g a.iXW.!.0X9X:XB.w C ^.fX0XE.x.tXxXQ.G.,XaXxX,X+.-X2 b >.",
":X=X&.F.rXyXuX}.G.K.(.L.L.` v n.=X4.tXtX>X>XvXbXs.W.iX/.h.c o % z.'.7Xe.V /.;X&.*X*X*X*XG.Z.P.2 b =X",
"tX,X-.}.lXlX1X4 #.,.`.J b.* d I.*Xi.tX>X3XxXbX&Xu.F.tXiXZ Z :X>.[ [ ~.C V K.F g Z Z.*X,XZ.aXP.l.8 j ",
"aX>X|.5XjXjXjXoX;XB.E H H J B.=XxXuXrX@XF.<X-.|.>X8XiX8Xr.xX9Xk.c.'.S S S Y.B.K.Z h .X*Xh =XL.,.~.7X",
"OX|.F.5XkXjXcXuXiX`.9.W R ) (.iXNXMXcXuX|..X-.H.S.$XQ.W.%.aX9X+.V 7X).R.f Q 8.:XZ.<.tX4Xx (.B.8._.0X"
};
